<svg width="120" height="120" fill="none" viewBox="0 0 120 120" class="symbol symbol-collectionsManager_emptyState_myCollections"><g clip-path="url(#clip0_706_9125)"><path fill="#C2E2FF" d="M111.81 92H1.92l2.69-77H114.5l-2.69 77z"></path><path fill="#116DFF" d="M119 90.5c0-9.665-7.835-17.5-17.5-17.5S84 80.835 84 90.5s7.835 17.5 17.5 17.5 17.5-7.835 17.5-17.5z"></path><path fill="#fff" d="M10.99 21l-.63 18h20.79l.63-18H10.99zm6.08 9.51s0-.02.01-.03c.04-.28.11-.54.21-.78-.3.12-.63.19-.98.21-.02 0-.03 0-.04.01-1.93.11-2.1-2.53-.18-2.68h.04c.24-.02.48-.01.71.02-.23-.22-.44-.48-.61-.78-.01-.01-.01-.02-.02-.03a1.347 1.347 0 012.34-1.32v.03c.11.2.2.4.27.6.07-.19.18-.37.3-.55 0-.01.01-.02.02-.03a1.344 1.344 0 012.2 1.53c-.01.01-.02.02-.02.03-.22.31-.48.57-.76.79.38 0 .78.07 1.18.21.01 0 .02.01.03.01 1.81.68.9 3.16-.92 2.52-.01-.01-.02-.01-.03-.01-.2-.07-.39-.17-.57-.28-.22-.12-.42-.27-.6-.44.11.41.14.86.07 1.32 0 .01 0 .02-.01.03-.01.03-.01.07-.02.1-.36 1.8-2.88 1.4-2.63-.48h.01zM30.69 62H9.89l.63-18h20.79l-.63 18h.01zm-.82 24H9.08l.63-18h20.78l-.63 18h.01zm77.37-47h-19.6l.63-18h19.6l-.63 18zm-.82 23h-19.6l.63-18h19.6l-.63 18zM84.35 39H35.09l.63-18h49.25l-.63 18h.01zm-.82 23H34.28l.63-18h49.25l-.63 18zm-.82 24H33.46l.63-18h49.25l-.63 18zm23.54-18.02l-.2 5.6c-1.44-.39-2.96-.6-4.53-.6-4.83 0-9.2 1.96-12.37 5.13a17.907 17.907 0 00-2.99 3.97l.49-14.1h19.6zM109 91h-7v7h-1v-7h-7v-1h7v-7h1v7h7v1z"></path><path fill="#FFD527" d="M23.03 73.76a2.29 2.29 0 00-2.29-2.29c-.4 0-.77.11-1.1.29a2.288 2.288 0 00-2.03-1.26 2.29 2.29 0 00-2.29 2.29v.04a2.297 2.297 0 00-1.85 2.25c0 .35.08.67.22.96 0 0 .05.11.15.28.02.03.04.06.06.08.05.07.11.15.19.23l.12.12c.7.67 2.24 1.46 5.4.62 3.64-.98 3.42-3.62 3.42-3.62v.01zm-4.31 1.06l-.1.03s.06-.03.09-.05c0 0 0 .02.01.02z"></path><path fill="#28BF9A" d="M18.94 53.53c-1.4.49-2.99-.43-3.53-2.02-.26-.77-.32-1.78-.16-2.68.06-.31.3-.56.6-.66l2.25-.76c.33-.11.69-.03.94.21.65.61 1.19 1.42 1.44 2.15.55 1.6-.15 3.29-1.55 3.76h.01z"></path><path fill="#192C55" d="M76 31H40v-1h36v1zM61 53H40v1h21v-1zm15 23H40v1h36v-1zM22.6 32.83c-.41.33-.68.74-.87 1.11-.3-1.83-.98-3.2-1.48-3.96-.22-.12-.42-.27-.6-.44.11.41.14.86.07 1.32 0 .01 0 .02-.01.03-.01.03-.01.07-.02.1.54.97 1.25 2.71 1.21 5.1l1 .02c.01-.48 0-.95-.06-1.38.44-.07 1.14-.26 1.71-.73.92-.75 1.19-1.95 1.19-1.95s-1.23.02-2.15.78h.01zm-1.43 46.82c-.4.33-.68.74-.86 1.1-.24-1.43-.7-2.58-1.14-3.37-.36.09-.7.17-1.02.21.53.9 1.37 2.73 1.33 5.33h1c0-.47-.02-.93-.06-1.36.44-.07 1.14-.26 1.71-.73.92-.75 1.19-1.95 1.19-1.95s-1.23.02-2.15.78v-.01zm.85-23.69c-.4.33-.67.73-.86 1.09-.33-1.92-1.07-3.33-1.57-4.06-.24.23-.52.41-.85.52.47.68 1.63 2.67 1.59 5.71l1 .02c0-.48-.02-.94-.07-1.38.44-.07 1.13-.26 1.71-.73.92-.75 1.19-1.95 1.19-1.95s-1.23.02-2.15.78h.01z"></path></g><defs><clipPath id="clip0_706_9125"><path fill="#fff" d="M0 0h120v120H0z"></path></clipPath></defs></svg>