<svg width="207" height="133" viewBox="0 0 207 133" fill="none" data-hook="image-node"><path d="M46 107C51.11 107 57.88 104.33 61.19 98.67C61.3952 98.3492 61.5789 98.0151 61.74 97.67C62.5392 95.8847 62.9678 93.9558 63 92H102L102.001 106.187C119.509 99.9591 121 75 121 75H131V66H137L137.18 76.15C137.113 81.3749 138.498 86.5158 141.18 91C141.26 91.13 141.33 91.26 141.41 91.38C141.49 91.5 141.67 91.8 141.81 92L142.1 92.42C149.54 103.25 162.67 107 162.67 107H46Z" fill="#C2E2FF"></path><path d="M105.58 101.3C108.484 101.238 110.96 103.253 111.566 106L164 106V107H44V106L47.0636 106C53.1249 102.763 59.0368 102.763 61.331 106L98.6204 106.001C99.8063 103.237 102.51 101.371 105.58 101.3ZM69 97V98H61.59L62.04 97H69ZM133 96V97H125V96H133ZM141.22 91C141.3 91.13 141.37 91.26 141.45 91.38C141.53 91.5 141.71 91.8 141.85 92H130V91H141.22Z" fill="#1D2C52"></path><path d="M87.2 67.04C89.6687 67.04 91.67 69.0413 91.67 71.51V88.15H91.71C94.3074 88.15 96.4145 86.0474 96.42 83.45V73.8C96.2545 72.6382 96.7816 71.4865 97.7692 70.8524C98.7567 70.2183 100.023 70.2183 101.011 70.8524C101.998 71.4865 102.526 72.6382 102.36 73.8V83.45C102.357 86.2825 101.228 88.9974 99.2201 90.9955C97.215 92.9913 94.4988 94.108 91.67 94.1001L91.67 107H82.73V94.1L82.23 94.1001C76.3527 94.089 71.591 89.3273 71.58 83.45V80.34C71.58 78.6832 72.9232 77.34 74.58 77.34C76.2369 77.34 77.58 78.6832 77.58 80.34V83.45C77.5855 86.0435 79.6866 88.1445 82.28 88.15H82.73V71.51C82.73 69.0413 84.7313 67.04 87.2 67.04Z" fill="#116DFF"></path><path d="M67.4 64.37C72.3926 64.37 76.44 60.3227 76.44 55.33C76.44 50.3374 72.3926 46.29 67.4 46.29C62.4073 46.29 58.36 50.3374 58.36 55.33C58.36 60.3227 62.4073 64.37 67.4 64.37Z" fill="#FFD527"></path></svg>