<svg xmlns="http://www.w3.org/2000/svg" height="24" viewBox="0 -960 960 960" width="24"><path d="M828.616-103.077 726.769-204.154q-18.153 11.462-38.91 18.577-20.757 7.116-43.244 7.116-56.538 0-96.73-40.193-40.193-40.192-40.193-96.731 0-56.538 40.193-96.73 40.192-40.193 96.73-40.193 56.539 0 96.731 40.193 40.193 40.192 40.193 96.73 0 22.154-6.346 43.462-6.347 21.308-20.116 38.692l101.846 101.847-28.307 28.307ZM644.442-218.461q40.635 0 68.866-28.058 28.231-28.057 28.231-68.692 0-40.635-28.058-68.866-28.057-28.231-68.692-28.231-40.635 0-68.866 28.058-28.231 28.057-28.231 68.692 0 40.635 28.058 68.866 28.057 28.231 68.692 28.231ZM800-532.308h-40v-203.077q0-9.23-7.692-16.923Q744.615-760 735.385-760H640v89.231H320V-760h-95.385q-9.23 0-16.923 7.692Q200-744.615 200-735.385v510.77q0 9.23 7.692 16.923Q215.385-200 224.615-200H420v40H224.615q-26.654 0-45.634-18.981Q160-197.961 160-224.615v-510.77q0-26.654 18.981-45.634Q197.961-800 224.615-800h185.462q5.615-23.462 24.923-39.423 19.308-15.962 45-15.962 26.154 0 45.346 15.962 19.193 15.961 24.808 39.423h185.231q26.654 0 45.634 18.981Q800-762.039 800-735.385v203.077ZM480.135-750.769q13.788 0 22.98-9.328 9.193-9.327 9.193-23.115 0-13.788-9.328-22.98-9.327-9.193-23.115-9.193-13.788 0-22.98 9.328-9.193 9.327-9.193 23.115 0 13.788 9.328 22.98 9.327 9.193 23.115 9.193Z"/></svg>