<svg width="85" height="42" viewBox="0 0 85 42" fill="none" xmlns="http://www.w3.org/2000/svg">
<path fill-rule="evenodd" clip-rule="evenodd" d="M85 20.9914C85 21.192 84.9938 21.3848 84.98 21.5792C84.9738 21.7476 84.96 21.9084 84.9415 22.0706C84.9292 22.2191 84.9091 22.3676 84.8891 22.5161C84.8768 22.6186 84.8568 22.7227 84.8368 22.8268C84.7782 23.1881 84.6935 23.5509 84.5904 23.906C84.558 24.0346 84.5195 24.1647 84.4795 24.2872C84.4672 24.3331 84.4533 24.3775 84.4333 24.4234C84.3809 24.5841 84.3224 24.7464 84.2639 24.901C84.2177 25.0235 84.1669 25.1536 84.1083 25.276C84.096 25.3143 84.076 25.3602 84.056 25.3985L84.036 25.3924L84.0236 25.3863L56.6502 12.1849C56.4808 12.1068 56.2806 12.1589 56.1759 12.3135L52.4984 17.7707L42.701 5.80314C42.5639 5.64854 42.3314 5.62251 42.1743 5.75722L28.5623 17.0987L22.1097 16.4848C22.005 16.4726 21.9018 16.4848 21.8048 16.5308C20.0307 17.3252 2.15599 25.3725 1.13652 25.8317C1.09032 25.7475 1.05182 25.671 1.01948 25.5868C0.967116 25.4704 0.914757 25.348 0.863937 25.2255C0.759217 24.9806 0.662198 24.728 0.585198 24.4831C0.532838 24.3346 0.488178 24.1923 0.448138 24.0438C0.298759 23.5662 0.194039 23.0809 0.123199 22.5911C0.0708396 22.2681 0.0384997 21.939 0.0200198 21.6099C0.00769984 21.4093 0 21.2027 0 20.996C0 9.40351 19.0251 1.68131e-06 42.4992 1.68131e-06C65.9749 -0.00459062 85 9.39892 85 20.9914Z" fill="#1F79DC"/>
<path fill-rule="evenodd" clip-rule="evenodd" d="M36.4469 32.9237H36.2837L36.1543 33.4947H36.3715C36.4331 33.4947 36.4762 33.4778 36.5008 33.4442C36.5255 33.4105 36.5501 33.3477 36.5717 33.2574C36.5932 33.1671 36.604 33.1028 36.604 33.063C36.604 32.9712 36.5517 32.9237 36.4469 32.9237Z" fill="#00984A"/>
<path fill-rule="evenodd" clip-rule="evenodd" d="M39.9566 32.9941C39.8411 32.9941 39.7641 33.0661 39.724 33.21L39.3775 34.6979C39.3668 34.7484 39.3606 34.7913 39.3606 34.8265C39.3606 34.9168 39.4114 34.9612 39.5131 34.9612C39.5824 34.9612 39.6332 34.9459 39.6671 34.9153C39.7009 34.8846 39.7271 34.8295 39.7456 34.7515L40.1029 33.2375C40.1106 33.1947 40.1137 33.1656 40.1137 33.1518C40.1137 33.0462 40.0613 32.9941 39.9566 32.9941Z" fill="#00984A"/>
<path fill-rule="evenodd" clip-rule="evenodd" d="M46.9974 32.9941H46.8619L46.4015 34.9627H46.5863C46.6617 34.9627 46.7202 34.9413 46.7603 34.8984C46.8003 34.8556 46.8327 34.7821 46.8573 34.678L47.1715 33.3355C47.1853 33.2743 47.193 33.2176 47.193 33.1625C47.1915 33.0492 47.1268 32.9941 46.9974 32.9941Z" fill="#00984A"/>
<path fill-rule="evenodd" clip-rule="evenodd" d="M56.2235 32.9666H56.0126L55.8555 33.6356H56.0665C56.1897 33.6356 56.2744 33.533 56.3206 33.3279C56.3283 33.2881 56.3344 33.2498 56.3421 33.2115C56.3498 33.1733 56.3529 33.1427 56.3529 33.1166C56.3529 33.0171 56.3098 32.9666 56.2235 32.9666Z" fill="#00984A"/>
<path fill-rule="evenodd" clip-rule="evenodd" d="M20.0167 34.3734H20.3263L20.2832 33.7703L20.0167 34.3734Z" fill="#00984A"/>
<path fill-rule="evenodd" clip-rule="evenodd" d="M36.1374 34.2126H35.9865L35.8017 35.0163H35.9865C36.0835 35.0163 36.1513 34.9933 36.1898 34.9489C36.2283 34.9046 36.2652 34.802 36.3006 34.6443C36.3253 34.5433 36.3391 34.4606 36.3391 34.3963C36.3376 34.2739 36.2714 34.2126 36.1374 34.2126Z" fill="#00984A"/>
<path fill-rule="evenodd" clip-rule="evenodd" d="M25.8102 34.3734H26.1197L26.0751 33.7703L25.8102 34.3734Z" fill="#00984A"/>
<path fill-rule="evenodd" clip-rule="evenodd" d="M82.8624 27.4727C82.8624 27.4727 82.8562 27.4665 82.8501 27.4665L73.2205 24.3729L72.2842 27.4344C72.2133 27.6793 71.9146 27.7773 71.7051 27.6288L62.7069 21.022L61.6674 23.1207C61.5442 23.3656 61.2131 23.4054 61.0376 23.1911L59.0695 20.7557L57.3801 23.035C57.2831 23.1574 57.2769 23.3319 57.3678 23.4605L61.2855 29.2989C61.4996 29.6157 61.1485 30.0091 60.8112 29.8346L45.9456 22.3614L42.7424 28.4386C42.5931 28.7156 42.1896 28.6973 42.0664 28.4126L40.0906 23.8524L38.837 25.0341C38.5968 25.2607 38.2072 25.0923 38.2072 24.7693V20.2092L25.9719 27.7206C25.6269 27.9334 25.2373 27.5262 25.4652 27.1971L29.597 21.12L17.408 26.3521C17.1092 26.4807 16.7966 26.1914 16.9075 25.8868L18.2072 22.2956L4.39965 26.6062L2.44386 27.214L2.02806 27.3425C7.51198 35.8031 23.5541 41.9201 42.5007 41.9201C61.3425 41.9201 77.3138 35.8689 82.8824 27.4849C82.8747 27.4788 82.8685 27.4788 82.8624 27.4727ZM17.9824 35.8506H16.4748C16.3593 35.8506 16.3007 35.7939 16.3007 35.6776C16.3007 35.6638 16.3038 35.6347 16.3115 35.5919L16.9244 32.9926H16.5502C16.4932 32.9926 16.444 33.0064 16.407 33.0324C16.3685 33.06 16.3423 33.0952 16.3285 33.138H16.1929L16.4101 32.2762C16.4239 32.2257 16.4532 32.189 16.4963 32.166C16.5394 32.143 16.6087 32.1308 16.7027 32.1308H18.9203C18.9772 32.1308 19.0342 32.1185 19.0881 32.0956C19.142 32.0726 19.1759 32.0389 19.1913 31.9961H19.316L19.0989 32.8212C19.0635 32.936 18.9557 32.9941 18.7786 32.9941H18.4583L17.8515 35.5597C17.8438 35.5949 17.8607 35.6332 17.9008 35.6699C17.9408 35.7082 17.9809 35.7266 18.0194 35.7266L17.9824 35.8506ZM22.0618 35.8506H20.662C20.5681 35.8506 20.4988 35.8352 20.4526 35.8046C20.4079 35.774 20.3817 35.7204 20.374 35.6454L20.3247 35.0959H19.6949L19.4731 35.5383C19.47 35.549 19.467 35.5582 19.467 35.5658C19.467 35.5735 19.4654 35.5873 19.4608 35.6087C19.4608 35.6408 19.4762 35.6684 19.507 35.6929C19.5378 35.7159 19.5732 35.7281 19.6133 35.7281L19.5855 35.8521H18.409C18.2565 35.8521 18.1811 35.7924 18.1811 35.6745C18.1811 35.6424 18.1903 35.6087 18.2088 35.572L19.8027 32.4997C19.8135 32.4783 19.8196 32.4507 19.8196 32.4186C19.8196 32.3788 19.8027 32.342 19.7688 32.3084C19.7349 32.2747 19.698 32.2563 19.6579 32.2563L19.6903 32.1323H21.3057C21.3889 32.1323 21.4597 32.1553 21.5167 32.1997C21.5737 32.2441 21.6029 32.3084 21.6029 32.391L21.8524 35.5398C21.8524 35.5857 21.8771 35.6301 21.9279 35.6684C21.9787 35.7082 22.031 35.7281 22.0849 35.7281L22.0618 35.8506ZM22.5238 35.8506C22.4407 35.8506 22.3714 35.8322 22.3175 35.797C22.2636 35.7618 22.2312 35.7128 22.2205 35.6516L21.8309 32.466C21.8232 32.4017 21.7985 32.3497 21.7569 32.313C21.7154 32.2747 21.6692 32.2563 21.6183 32.2563L21.6461 32.1323H23.1599C23.2061 32.1323 23.2523 32.1553 23.2954 32.2027C23.3385 32.2487 23.3601 32.2992 23.3601 32.3528L23.4032 33.7657L23.9345 32.5303L23.956 32.4446C23.956 32.4017 23.9406 32.3589 23.9098 32.3175C23.879 32.2762 23.8436 32.2548 23.8036 32.2548L23.8313 32.1308H24.9324C24.9971 32.1308 25.051 32.1553 25.0926 32.2043C25.1341 32.2533 25.1557 32.3038 25.1557 32.3573L25.1341 32.4645L23.5402 35.8506H22.5238ZM27.8553 35.8506H26.4555C26.3615 35.8506 26.2922 35.8352 26.246 35.8046C26.2014 35.774 26.1752 35.7204 26.1675 35.6454L26.1182 35.0959H25.4883L25.2666 35.5383C25.2635 35.549 25.2604 35.5582 25.2604 35.5658C25.2604 35.5735 25.2589 35.5873 25.2543 35.6087C25.2543 35.6408 25.2697 35.6684 25.3005 35.6929C25.3313 35.7159 25.3667 35.7281 25.4067 35.7281L25.379 35.8521H24.2024C24.05 35.8521 23.9745 35.7924 23.9745 35.6745C23.9745 35.6424 23.9838 35.6087 24.0022 35.572L25.5961 32.4997C25.6069 32.4783 25.6131 32.4507 25.6131 32.4186C25.6131 32.3788 25.5961 32.342 25.5623 32.3084C25.5284 32.2747 25.4914 32.2563 25.4514 32.2563L25.4837 32.1323H27.0992C27.1823 32.1323 27.2532 32.1553 27.3102 32.1997C27.3671 32.2441 27.3964 32.3084 27.3964 32.391L27.6459 35.5398C27.6459 35.5857 27.6705 35.6301 27.7213 35.6684C27.7722 35.7082 27.8245 35.7281 27.8784 35.7281L27.8553 35.8506ZM32.329 32.4706L31.5267 35.8506H30.5395C30.4317 35.8506 30.3393 35.8368 30.2654 35.8077C30.1915 35.7786 30.1437 35.7266 30.1222 35.6516L29.5693 34.3198L29.2552 35.5214L29.2444 35.6133C29.2444 35.6485 29.2598 35.6776 29.2906 35.6975C29.3214 35.7174 29.3614 35.7266 29.4122 35.7266L29.3845 35.8506H28.1649C28.1033 35.8506 28.0571 35.8337 28.0263 35.8C27.9955 35.7664 27.98 35.7204 27.98 35.6623C27.98 35.6408 27.9831 35.6118 27.9908 35.5766L28.7285 32.4232C28.7362 32.3834 28.7208 32.3466 28.6854 32.3099C28.6499 32.2747 28.6099 32.2563 28.5668 32.2563L28.5991 32.1323H29.9774C30.0205 32.1323 30.0714 32.1538 30.1268 32.1951C30.1822 32.2364 30.2207 32.2808 30.2377 32.3267L30.8229 33.6845L31.0831 32.5196C31.0908 32.4982 31.0939 32.4645 31.0939 32.417C31.0939 32.3742 31.0754 32.3359 31.04 32.3038C31.0046 32.2716 30.9646 32.2548 30.9214 32.2548L30.9538 32.1308H32.1688C32.2274 32.1308 32.2705 32.1507 32.3013 32.1905C32.3321 32.2303 32.3475 32.2747 32.3475 32.3252L32.329 32.4706ZM37.7097 34.8112C37.6158 35.2168 37.471 35.4954 37.2755 35.647C37.0984 35.7832 36.8258 35.8521 36.4562 35.8521H34.3048C34.2432 35.8521 34.197 35.8352 34.1662 35.8016C34.1354 35.7679 34.12 35.722 34.12 35.6638C34.12 35.6424 34.1231 35.6133 34.1308 35.5781L34.8684 32.4247C34.8761 32.3849 34.8607 32.3482 34.8253 32.3114C34.7899 32.2762 34.7499 32.2578 34.7067 32.2578L34.7391 32.1339L37.2616 32.1277C37.5034 32.1277 37.6913 32.1905 37.8222 32.316C37.9546 32.4415 38.0208 32.6007 38.0208 32.7906C38.0208 32.8196 38.0177 32.8518 38.0131 32.887C38.007 32.9222 38.0039 32.9498 37.9993 32.9681C37.9161 33.3631 37.7467 33.6019 37.4895 33.6845C37.5942 33.7488 37.6712 33.8208 37.7205 33.8973C37.7698 33.9738 37.7944 34.0886 37.7944 34.2402C37.7914 34.3764 37.7652 34.5662 37.7097 34.8112ZM40.7913 35.6194C40.5895 35.774 40.3108 35.8506 39.9566 35.8506H38.8447C38.5044 35.8506 38.2534 35.774 38.0886 35.6209C37.9238 35.4679 37.8422 35.2428 37.8422 34.9443C37.8422 34.7683 37.8653 34.5846 37.913 34.3948L38.1517 33.3753C38.2457 32.9834 38.3812 32.6911 38.5583 32.4966C38.7862 32.2517 39.1065 32.1293 39.5177 32.1293H40.5479C40.8667 32.1293 41.1285 32.2119 41.3349 32.3742C41.5412 32.538 41.6444 32.7691 41.6444 33.0676C41.6444 33.1748 41.6321 33.2789 41.6059 33.3799L41.281 34.7499C41.1855 35.1571 41.0223 35.4464 40.7913 35.6194ZM44.4041 35.6806C44.2701 35.7939 44.0468 35.8506 43.7311 35.8506H42.419C42.0541 35.8506 41.7923 35.7801 41.6321 35.6408C41.492 35.5153 41.4211 35.3224 41.4211 35.0637C41.4211 34.8984 41.4504 34.6979 41.5074 34.4606L41.8061 33.161C41.8816 32.8227 42.0279 32.5625 42.245 32.3803C42.4437 32.2119 42.6716 32.1262 42.9288 32.1262H45.1464C45.1356 32.2334 45.1156 32.3436 45.0863 32.4553C45.0571 32.5671 45.0263 32.6589 44.9908 32.7309C44.957 32.8028 44.9046 32.8548 44.8338 32.887C44.7629 32.9191 44.6828 32.936 44.592 32.936H43.6757C43.574 32.936 43.4955 32.9605 43.4401 33.0095C43.3846 33.0584 43.343 33.138 43.3184 33.2498L42.9657 34.7591C42.958 34.8096 42.955 34.8418 42.955 34.8556C42.955 34.9459 43.0104 34.9903 43.1228 34.9903C43.2491 34.9903 43.3276 34.9244 43.3554 34.7913L43.4847 34.2417L43.4955 34.1713C43.4955 34.1392 43.4739 34.1223 43.4308 34.1223C43.3877 34.1223 43.3661 34.104 43.3661 34.0687L43.3769 33.9983L43.534 33.3569H44.7321C44.8184 33.3569 44.8861 33.383 44.9354 33.435C44.9847 33.4871 45.0093 33.5452 45.0093 33.611C45.0093 33.6937 45.0016 33.7626 44.9878 33.8162L44.6998 35.0836C44.6366 35.3684 44.5381 35.5689 44.4041 35.6806ZM48.6314 33.5789C48.6083 33.735 48.5744 33.9004 48.5313 34.0718C48.3619 34.7867 48.194 35.2627 48.0292 35.497C47.8645 35.7327 47.6258 35.8506 47.3101 35.8506H44.8923C44.8307 35.8506 44.7845 35.8337 44.7537 35.8C44.7229 35.7664 44.7075 35.7204 44.7075 35.6623C44.7075 35.6408 44.7106 35.6118 44.7183 35.5766L45.4559 32.4232C45.4636 32.3834 45.4482 32.3466 45.4128 32.3099C45.3774 32.2747 45.3373 32.2563 45.2942 32.2563L45.3265 32.1323H47.6473C48.0123 32.1323 48.2787 32.2257 48.445 32.4125C48.5929 32.5808 48.6668 32.8288 48.6668 33.1564C48.6668 33.2819 48.656 33.4228 48.6314 33.5789ZM53.4885 35.6806C53.3545 35.7939 53.1312 35.8506 52.8155 35.8506H51.5035C51.1385 35.8506 50.8767 35.7801 50.7165 35.6408C50.5764 35.5153 50.5056 35.3224 50.5056 35.0637C50.5056 34.8984 50.5348 34.6979 50.5918 34.4606L50.8906 33.161C50.966 32.8227 51.1123 32.5625 51.3295 32.3803C51.5281 32.2119 51.756 32.1262 52.0132 32.1262H54.2308C54.22 32.2334 54.2 32.3436 54.1707 32.4553C54.1415 32.5671 54.1107 32.6589 54.0753 32.7309C54.0414 32.8028 53.989 32.8548 53.9182 32.887C53.8473 32.9191 53.7673 32.936 53.6764 32.936H52.7601C52.6585 32.936 52.5799 32.9605 52.5245 33.0095C52.469 33.0584 52.4275 33.138 52.4028 33.2498L52.0502 34.7591C52.0425 34.8096 52.0394 34.8418 52.0394 34.8556C52.0394 34.9459 52.0948 34.9903 52.2072 34.9903C52.3335 34.9903 52.4121 34.9244 52.4398 34.7913L52.5691 34.2417L52.5799 34.1713C52.5799 34.1392 52.5584 34.1223 52.5152 34.1223C52.4721 34.1223 52.4506 34.104 52.4506 34.0687L52.4613 33.9983L52.6184 33.3569H53.8165C53.9028 33.3569 53.9705 33.383 54.0198 33.435C54.0691 33.4871 54.0937 33.5452 54.0937 33.611C54.0937 33.6937 54.086 33.7626 54.0722 33.8162L53.7842 35.0836C53.7226 35.3684 53.6225 35.5689 53.4885 35.6806ZM57.4494 35.598C57.414 35.7664 57.2831 35.8506 57.0582 35.8506H56.3314C56.2374 35.8506 56.1558 35.8261 56.088 35.7771C56.0203 35.7281 55.9756 35.6684 55.9587 35.5965L55.6445 34.4958L55.412 35.5475L55.4058 35.601C55.4058 35.6363 55.4212 35.6669 55.452 35.6898C55.4828 35.7128 55.5213 35.725 55.5691 35.725L55.5413 35.849H54.0398C53.9782 35.849 53.932 35.8322 53.9012 35.7985C53.8704 35.7648 53.855 35.7189 53.855 35.6607C53.855 35.6393 53.8581 35.6102 53.8658 35.575L54.6035 32.4216C54.6112 32.3818 54.5958 32.3451 54.5604 32.3084C54.5249 32.2732 54.4849 32.2548 54.4418 32.2548L54.4741 32.1308H56.9858C57.5495 32.1308 57.8313 32.391 57.8313 32.913C57.8313 32.985 57.8282 33.0477 57.8205 33.1013C57.802 33.1947 57.7897 33.2666 57.782 33.3171C57.7096 33.6401 57.6142 33.8774 57.494 34.0289C57.3755 34.1805 57.2045 34.28 56.9843 34.3305L57.1737 34.8265C57.1984 34.8693 57.2338 34.9061 57.2769 34.9367C57.32 34.9673 57.3693 34.9826 57.4232 34.9826H57.5803L57.4494 35.598ZM60.5787 35.6194C60.3769 35.774 60.0982 35.8506 59.744 35.8506H58.6321C58.2918 35.8506 58.0407 35.774 57.876 35.6209C57.7112 35.4679 57.6296 35.2428 57.6296 34.9443C57.6296 34.7683 57.6527 34.5846 57.7004 34.3948L57.9391 33.3753C58.033 32.9834 58.1686 32.6911 58.3457 32.4966C58.5736 32.2517 58.8939 32.1293 59.3051 32.1293H60.3353C60.6541 32.1293 60.9159 32.2119 61.1207 32.3742C61.3271 32.538 61.4303 32.7691 61.4303 33.0676C61.4303 33.1748 61.418 33.2789 61.3918 33.3799L61.0668 34.7499C60.9729 35.1571 60.8097 35.4464 60.5787 35.6194ZM64.2885 35.6194C64.0975 35.771 63.828 35.846 63.48 35.846H62.2372C61.9077 35.846 61.6674 35.7725 61.5134 35.6271C61.3594 35.4816 61.2824 35.2673 61.2824 34.9826C61.2824 34.8096 61.3102 34.6122 61.3641 34.3902L61.8245 32.4216C61.8322 32.3864 61.8168 32.3497 61.7814 32.3114C61.746 32.2732 61.7075 32.2548 61.6674 32.2548L61.6952 32.1308H63.2028C63.2644 32.1308 63.3091 32.1461 63.3352 32.1767C63.363 32.2073 63.3753 32.2517 63.3753 32.3084L63.3645 32.3895L62.8224 34.7285C62.8147 34.7637 62.8116 34.7867 62.8116 34.7928C62.8116 34.8724 62.8732 34.9107 62.9964 34.9107C63.0642 34.9107 63.115 34.8984 63.1458 34.8755C63.1766 34.8525 63.2013 34.802 63.2182 34.727L63.7557 32.4201C63.7634 32.3849 63.748 32.3482 63.7125 32.3099C63.6771 32.2716 63.6386 32.2533 63.5986 32.2533L63.6263 32.1293H65.134C65.1956 32.1293 65.2402 32.1446 65.2664 32.1752C65.2941 32.2058 65.3064 32.2502 65.3064 32.3068L65.2957 32.388L64.7474 34.7484C64.655 35.1617 64.501 35.4495 64.2885 35.6194ZM68.7961 33.1778C68.7884 33.2421 68.773 33.3233 68.7468 33.4197C68.6313 33.9157 68.5004 34.2433 68.3556 34.404C68.2109 34.5632 67.9737 34.6443 67.6457 34.6443H66.5292L66.329 35.4908L66.3121 35.5934C66.3121 35.6332 66.329 35.6653 66.3613 35.6898C66.3937 35.7143 66.4322 35.7281 66.4753 35.7281L66.443 35.8521H64.9461C64.8845 35.8521 64.8383 35.8352 64.8075 35.8016C64.7767 35.7679 64.7613 35.722 64.7613 35.6638C64.7613 35.6424 64.7644 35.6133 64.7721 35.5781L65.5097 32.4247C65.5174 32.3849 65.502 32.3482 65.4666 32.3114C65.4312 32.2762 65.3911 32.2578 65.348 32.2578L65.3804 32.1339H67.7997C68.1323 32.1339 68.3834 32.1997 68.5527 32.3329C68.7222 32.466 68.8084 32.6757 68.8084 32.9635C68.8068 33.0401 68.8038 33.112 68.7961 33.1778Z" fill="#00984A"/>
<path fill-rule="evenodd" clip-rule="evenodd" d="M67.0713 32.9666H66.925L66.7356 33.781H66.9034C66.9943 33.781 67.0605 33.7534 67.1036 33.6968C67.1467 33.6417 67.1868 33.5345 67.2222 33.3753C67.2438 33.282 67.2545 33.2085 67.2545 33.1549C67.2545 33.083 67.2391 33.034 67.2083 33.0064C67.1791 32.9804 67.1329 32.9666 67.0713 32.9666Z" fill="#00984A"/>
<path fill-rule="evenodd" clip-rule="evenodd" d="M59.7424 32.9941C59.6269 32.9941 59.5499 33.0661 59.5099 33.21L59.1634 34.6979C59.1526 34.7484 59.1465 34.7913 59.1465 34.8265C59.1465 34.9168 59.1973 34.9612 59.2989 34.9612C59.3667 34.9612 59.419 34.9459 59.4529 34.9153C59.4868 34.8846 59.513 34.8295 59.5315 34.7515L59.8887 33.2375C59.8964 33.1947 59.8995 33.1656 59.8995 33.1518C59.9011 33.0462 59.8487 32.9941 59.7424 32.9941Z" fill="#00984A"/>
</svg>
